<?xml version="1.0" standalone="no"?>
<!DOCTYPE svg PUBLIC "-//W3C//DTD SVG 20010904//EN"
 "http://www.w3.org/TR/2001/REC-SVG-20010904/DTD/svg10.dtd">
<svg version="1.0" xmlns="http://www.w3.org/2000/svg"
 width="89.000000pt" height="89.000000pt" viewBox="0 0 89.000000 89.000000"
 preserveAspectRatio="xMidYMid meet">
<metadata>
Created by potrace 1.14, written by Peter Selinger 2001-2017
</metadata>
<g transform="translate(0.000000,89.000000) scale(0.100000,-0.100000)"
fill="#000000" stroke="none">
<path d="M2 551 c3 -329 3 -337 26 -379 35 -65 101 -127 163 -150 49 -19 72
-21 264 -19 176 2 216 6 249 20 58 27 131 101 157 160 22 51 23 61 24 378 l1
325 -443 0 -444 0 3 -335z m837 174 c-1 -78 -5 -115 -13 -116 -6 -1 -68 -1
-138 -1 l-128 -1 0 -138 c0 -104 -3 -139 -12 -140 -7 0 -59 -1 -116 -2 -84 -2
-102 1 -103 13 -1 8 -2 71 -3 140 l-1 125 -133 2 c-74 1 -136 4 -139 7 -5 5
-6 69 -4 189 l1 37 395 0 394 0 0 -115z m-559 -305 l0 -140 163 0 164 0 0 123
c1 67 1 130 2 140 1 15 14 17 117 17 l115 0 -3 -162 c-4 -158 -5 -165 -33
-216 -29 -54 -78 -96 -142 -121 -23 -9 -89 -13 -222 -13 -165 0 -195 3 -233
20 -64 28 -113 75 -137 133 -22 51 -25 94 -22 302 l1 57 115 0 115 0 0 -140z"/>
</g>
</svg>
